<svg width="16" height="16" viewBox="0 0 16 16" fill="none" xmlns="http://www.w3.org/2000/svg">
<path d="M15.762 3.29134C15.2053 3.53801 14.6073 3.70468 13.9787 3.78001C14.6273 3.39187 15.1126 2.78099 15.344 2.06134C14.7346 2.42334 14.0676 2.67814 13.372 2.81468C12.9043 2.31525 12.2847 1.98423 11.6095 1.87299C10.9344 1.76176 10.2414 1.87654 9.63816 2.19951C9.03492 2.52249 8.55518 3.03559 8.27343 3.65915C7.99169 4.28271 7.92369 4.98184 8.08 5.64801C6.84512 5.58601 5.63708 5.26504 4.53428 4.70595C3.43148 4.14685 2.45856 3.36212 1.67866 2.40268C1.412 2.86268 1.25866 3.39601 1.25866 3.96401C1.25837 4.47534 1.38429 4.97884 1.62525 5.42983C1.86621 5.88083 2.21477 6.26537 2.64 6.54934C2.14685 6.53365 1.66458 6.4004 1.23333 6.16068V6.20068C1.23328 6.91784 1.48135 7.61293 1.93545 8.16801C2.38955 8.72309 3.02171 9.10396 3.72466 9.24601C3.26719 9.36982 2.78756 9.38806 2.322 9.29934C2.52033 9.91642 2.90666 10.456 3.42691 10.8426C3.94716 11.2292 4.57528 11.4435 5.22333 11.4553C4.12322 12.319 2.76459 12.7874 1.366 12.7853C1.11825 12.7854 0.870715 12.7709 0.624664 12.742C2.04432 13.6548 3.69689 14.1392 5.38467 14.1373C11.098 14.1373 14.2213 9.40534 14.2213 5.30134C14.2213 5.16801 14.218 5.03334 14.212 4.90001C14.8195 4.46066 15.3439 3.91661 15.7607 3.29334L15.762 3.29134Z" fill="black" fill-opacity="0.3"/>
</svg>
